<svg viewBox="0 0 560 460" role="img" aria-label="시흥 생활권 방문형 관리 안내 이미지 안내 이미지" xmlns="http://www.w3.org/2000/svg">
  <defs>
    <linearGradient id="g59464a" x1="0" y1="0" x2="1" y2="1">
      <stop offset="0" stop-color="#FFF1DD"/><stop offset="1" stop-color="#FFD79E"/>
    </linearGradient>
    <radialGradient id="g59464b" cx="0.7" cy="0.3" r="0.9">
      <stop offset="0" stop-color="#FFA938"/><stop offset="1" stop-color="#FFD79E"/>
    </radialGradient>
    <linearGradient id="g59464c" x1="0" y1="0" x2="1" y2="1">
      <stop offset="0" stop-color="#fff" stop-opacity=".9"/><stop offset="1" stop-color="#fff" stop-opacity=".25"/>
    </linearGradient>
  </defs>
  <rect width="560" height="460" rx="32" fill="url(#g59464a)"/>
  <circle cx="383" cy="147" r="150" fill="#FFA938" opacity=".22"/>
  <circle cx="90" cy="380" r="120" fill="#9BC48F" opacity=".18"/>
  <g transform="translate(107 137) rotate(17)">
    <ellipse cx="120" cy="120" rx="118" ry="138" fill="url(#g59464b)"/>
    <ellipse cx="90" cy="86" rx="40" ry="52" fill="#fff" opacity=".28"/>
    <path d="M150 -2 C188 -36 250 -30 250 -30 C250 -30 244 22 206 44 C182 58 156 44 150 18 Z" fill="#9BC48F"/>
    <path d="M168 6 C196 -12 230 -16 230 -16" stroke="#fff" stroke-opacity=".5" stroke-width="3" fill="none" stroke-linecap="round"/>
  </g>
  <g fill="#fff" opacity=".8">
    <circle cx="470" cy="330" r="4"/><circle cx="500" cy="300" r="6"/><circle cx="445" cy="300" r="3"/>
    <path d="M486 268 l4 10 10 4 -10 4 -4 10 -4 -10 -10 -4 10 -4 z" opacity=".9"/>
  </g>
  <rect x="20" y="20" width="520" height="420" rx="26" fill="none" stroke="url(#g59464c)" stroke-width="2"/>
</svg>